Coordinates
version=1
nRows=5
nColumns=63
inDegrees=yes

Units are S.I. units (second, meters, Newtons, ...)
If the header above contains a line with 'inDegrees', this indicates whether rotational values are in degrees (yes) or radians (no).

endheader
time	pelvis_tilt	pelvis_list	pelvis_rotation	pelvis_tx	pelvis_ty	pelvis_tz	hip_flexion_r	hip_adduction_r	hip_rotation_r	knee_angle_r	knee_angle_r_beta	ankle_angle_r	subtalar_angle_r	mtp_angle_r	hip_flexion_l	hip_adduction_l	hip_rotation_l	knee_angle_l	knee_angle_l_beta	ankle_angle_l	subtalar_angle_l	mtp_angle_l	L5_S1_Flex_Ext	L5_S1_Lat_Bending	L5_S1_axial_rotation	L4_L5_Flex_Ext	L4_L5_Lat_Bending	L4_L5_axial_rotation	L3_L4_Flex_Ext	L3_L4_Lat_Bending	L3_L4_axial_rotation	L2_L3_Flex_Ext	L2_L3_Lat_Bending	L2_L3_axial_rotation	L1_L2_Flex_Ext	L1_L2_Lat_Bending	L1_L2_axial_rotation	L1_T12_Flex_Ext	L1_T12_Lat_Bending	L1_T12_axial_rotation	Abs_r3	Abs_r2	Abs_r1	Abs_t1	Abs_t2	neck_flexion	neck_bending	neck_rotation	arm_flex_r	arm_add_r	arm_rot_r	elbow_flex_r	pro_sup_r	wrist_flex_r	wrist_dev_r	arm_flex_l	arm_add_l	arm_rot_l	elbow_flex_l	pro_sup_l	wrist_flex_l	wrist_dev_l
      0.00800000	    -45.74917835	      0.17492797	      0.66956022	     -0.25883563	      1.04787508	      0.26616040	    103.34522709	     -7.15810966	      0.83690144	     73.98839295	      1.29134107	     15.56958467	      9.16383220	      0.00000000	     88.75729108	     -8.58803892	     -0.98483879	     85.90514688	      1.49932766	      8.42437410	     10.03103915	      0.00000000	     -0.04333296	     -0.18542630	     -0.16195926	     -0.08047364	     -0.24661698	     -0.17208172	     -0.07119172	     -0.45084550	     -0.17208172	     -0.04952524	     -0.45084550	     -0.14171436	     -0.04023899	     -0.37812131	     -0.13159190	     -0.02476045	     -0.28722534	     -0.12146945	     -0.30952302	     -2.09757938	     -0.90076884	      0.00000000	      0.00000000	      0.00000000	      0.00000000	      0.00000001	     73.28219410	    -15.16125802	     21.31688229	     38.79200661	     56.46588206	      0.00000000	      3.82016522	     78.52813208	    -10.50708743	     28.32365959	     34.00095627	     59.87530673	      0.00000000	      3.82016522
      0.01700000	    -45.68465656	     -0.27833134	      1.89891668	     -0.26035631	      1.04707919	      0.26476636	     99.55085015	     -8.06842707	      0.46815186	     67.01176544	      1.16957594	     10.26323319	      6.23985969	      0.00000000	     92.50047399	     -7.58140377	      0.74417665	     92.66940418	      1.61738622	      7.67442443	     13.43292480	      0.00000000	     -0.03962546	     -0.18741233	     -0.33005039	     -0.07358845	     -0.24925839	     -0.35067854	     -0.06510067	     -0.45567433	     -0.35067854	     -0.04528794	     -0.45567433	     -0.28879409	     -0.03679621	     -0.38217122	     -0.26816594	     -0.02264199	     -0.29030169	     -0.24753779	     -0.28304072	     -2.12004572	     -1.83564124	      0.00000000	      0.00000000	      0.00000000	      0.00000000	      0.00000001	     73.39084354	    -15.65947666	     21.34177012	     38.22537526	     56.09355812	      0.00000000	      3.86434556	     78.47726680	     -9.66459556	     28.18037932	     34.28066323	     59.69163313	      0.00000000	      3.86434556
      0.02500000	    -45.60268036	     -0.50878203	      2.15368265	     -0.26030880	      1.04658077	      0.26431509	     98.17580766	     -8.29013722	     -0.02263583	     64.92665644	      1.13318393	      8.70138392	      5.67189345	      0.00000000	     93.73429086	     -7.43864345	      1.33474205	     94.89170898	      1.65617275	      8.76976752	     13.90151748	      0.00000000	     -0.03895889	     -0.17391906	     -0.36065248	     -0.07235056	     -0.23131235	     -0.38319326	     -0.06400556	     -0.42286680	     -0.38319326	     -0.04452612	     -0.42286680	     -0.31557092	     -0.03617723	     -0.35465575	     -0.29303014	     -0.02226111	     -0.26940062	     -0.27048936	     -0.27827947	     -1.96740718	     -2.00584090	      0.00000000	      0.00000000	      0.00000000	      0.00000000	      0.00000001	     73.36222279	    -15.88920392	     21.48924977	     38.14716725	     55.78936691	      0.00000000	      3.90084637	     78.36367147	     -9.35838906	     27.88489590	     34.30154003	     59.52138243	      0.00000000	      3.90084637
      0.03300000	    -45.49415313	     -0.79978181	      2.47075839	     -0.26010337	      1.04604805	      0.26380467	     96.52438254	     -8.60496917	     -0.69653492	     62.55687628	      1.09182346	      7.17729640	      5.48304035	      0.00000000	     95.20125118	     -7.26321295	      1.96937862	     97.39469555	      1.69985811	      9.78855970	     14.15432545	      0.00000000	     -0.03904083	     -0.15570186	     -0.40248254	     -0.07250273	     -0.20708347	     -0.42763770	     -0.06414018	     -0.37857349	     -0.42763770	     -0.04461977	     -0.37857349	     -0.35217222	     -0.03625332	     -0.31750723	     -0.32701706	     -0.02230793	     -0.24118218	     -0.30186190	     -0.27886476	     -1.76133054	     -2.23848714	      0.00000000	      0.00000000	      0.00000000	      0.00000000	      0.00000001	     73.27796166	    -16.06329668	     21.41128108	     38.05703317	     55.50631157	      0.00000000	      3.93098141	     78.27599409	     -9.05709183	     27.76834500	     34.29710063	     59.39991897	      0.00000000	      3.93098141
      0.04200000	    -45.36929664	     -1.16075209	      2.81448090	     -0.25973492	      1.04543498	      0.26325381	     94.63223997	     -8.94681214	     -1.59657377	     59.96407973	      1.04657062	      5.61725982	      5.37137473	      0.00000000	     96.87232877	     -7.04497204	      2.68531769	    100.11527099	      1.74734111	     10.96327470	     14.35029133	      0.00000000	     -0.03739277	     -0.13088402	     -0.44963568	     -0.06944211	     -0.17407575	     -0.47773791	     -0.06143258	     -0.31823140	     -0.47773791	     -0.04273619	     -0.31823140	     -0.39343122	     -0.03472292	     -0.26689869	     -0.36532899	     -0.02136623	     -0.20273935	     -0.33722676	     -0.26709280	     -1.48058620	     -2.50073879	      0.00000000	      0.00000000	      0.00000000	      0.00000000	      0.00000001	     73.15623172	    -16.23991027	     21.25136020	     37.94387951	     55.23601739	      0.00000000	      3.95815846	     78.17430061	     -8.76786618	     27.74430332	     34.27170796	     59.30219846	      0.00000000	      3.95815846
